<?xml version="1.0" encoding="UTF-8"?>
<svg width="200" height="200" viewBox="0 0 200 200" fill="none" xmlns="http://www.w3.org/2000/svg">
    <rect width="200" height="200" rx="100" fill="#E5E7EB"/>
    <path d="M100 50C87.85 50 78 59.85 78 72C78 84.15 87.85 94 100 94C112.15 94 122 84.15 122 72C122 59.85 112.15 50 100 50ZM100 88C91.16 88 84 80.84 84 72C84 63.16 91.16 56 100 56C108.84 56 116 63.16 116 72C116 80.84 108.84 88 100 88Z" fill="#6B7280"/>
    <path d="M100 100C75.2 100 55 120.2 55 145C55 147.75 57.25 150 60 150H140C142.75 150 145 147.75 145 145C145 120.2 124.8 100 100 100ZM65.1 140C66.9 126.75 82.1 117 100 117C117.9 117 133.1 126.75 134.9 140H65.1Z" fill="#6B7280"/>
</svg>
